<?xml version="1.0" encoding="utf-8"?>
<!-- Generator: Adobe Illustrator 19.0.0, SVG Export Plug-In . SVG Version: 6.00 Build 0)  -->
<svg version="1.1"
	 id="svg2" xmlns:dc="http://purl.org/dc/elements/1.1/" xmlns:cc="http://creativecommons.org/ns#" xmlns:svg="http://www.w3.org/2000/svg" xmlns:rdf="http://www.w3.org/1999/02/22-rdf-syntax-ns#"
	 xmlns="http://www.w3.org/2000/svg" xmlns:xlink="http://www.w3.org/1999/xlink" x="0px" y="0px" width="100px" height="48px"
	 viewBox="25.5 0 100 48" style="enable-background:new 25.5 0 100 48;" xml:space="preserve">
<style type="text/css">
	.st0{fill:#F59511;}
	.st1{fill:#EA1C24;}
	.st2{fill:#F14D1C;}
	.st3{fill:#100F0D;}
</style>
<g id="g10" transform="matrix(1.25,0,0,-1.25,0,60)">
	<g id="g12" transform="scale(0.1,0.1)">
		<path id="path14" class="st0" d="M787.4,317.3c0-63.3-51.2-114.7-114.4-114.7c-63.2,0-114.4,51.3-114.4,114.7S609.8,432,673,432
			C736.2,432,787.4,380.7,787.4,317.3L787.4,317.3"/>
		<path id="path16" class="st1" d="M646.2,317.3c0-63.3-51.2-114.7-114.4-114.7c-63.2,0-114.4,51.3-114.4,114.7S468.6,432,531.8,432
			C595,432,646.2,380.7,646.2,317.3L646.2,317.3"/>
		<path id="path18" class="st2" d="M602.4,407.6c-26.7-21-43.8-53.6-43.8-90.3c0-36.6,17.1-69.3,43.8-90.3
			c26.7,21,43.8,53.6,43.8,90.3C646.2,354,629.1,386.6,602.4,407.6"/>
		<path id="path20" class="st0" d="M780.4,256.5v3.4h1.4v0.7h-3.5v-0.7h1.4v-3.4H780.4z M787.2,256.5v4.1h-1.1l-1.2-2.8l-1.2,2.8
			h-1.1v-4.1h0.8v3.1l1.2-2.7h0.8l1.2,2.7v-3.1H787.2"/>
		<path id="path22" class="st3" d="M442.8,145.9h-6.5v30.3h6.4v-3.7c0,0,5.6,4.5,8.9,4.5c6.5-0.1,10.3-5.6,10.3-5.6
			s3.1,5.6,10.2,5.6c10.4,0,12-9.5,12-9.5v-21.4h-6.2v18.8c0,0,0,5.7-6.7,5.7c-7,0-7.6-5.7-7.6-5.7v-18.8h-6.5v19c0,0-0.6,6-6.5,6
			c-7.6,0-7.8-6.1-7.8-6.1L442.8,145.9"/>
		<path id="path24" class="st3" d="M640.3,177c-3.3,0.1-8.9-4.5-8.9-4.5v3.7H625V146h6.5l-0.1,19c0,0,0.1,6.1,7.8,6.1
			c1.4,0,2.5-0.3,3.4-0.9v0l2.1,5.9C643.4,176.6,641.9,177,640.3,177"/>
		<path id="path26" class="st3" d="M731.8,177c-3.3,0.1-8.9-4.5-8.9-4.5v3.7h-6.4V146h6.5l-0.1,19c0,0,0.1,6.1,7.8,6.1
			c1.4,0,2.5-0.3,3.4-0.9v0l2.1,5.9C734.8,176.6,733.4,177,731.8,177L731.8,177"/>
		<path id="path28" class="st3" d="M506.3,171c5.2,0,9.5-4.5,9.5-10.1c0-5.6-4.2-10.1-9.5-10.1c-5.2,0-9.4,4.5-9.4,10.1
			C496.8,166.4,501.1,171,506.3,171z M505,177.1c-9.7,0-14.9-8.7-14.9-16c0-7.5,5.9-16.1,15.2-16.1c5.4,0,9.9,4,9.9,4l0-3.1h6.4
			v30.3h-6.4v-3.8C515.2,172.4,511,177.1,505,177.1L505,177.1"/>
		<path id="path30" class="st3" d="M692.7,171c5.2,0,9.5-4.5,9.5-10.1c0-5.6-4.2-10.1-9.5-10.1c-5.2,0-9.4,4.5-9.4,10.1
			C683.3,166.4,687.5,171,692.7,171z M691.5,177.1c-9.7,0-14.9-8.7-14.9-16c0-7.5,5.9-16.1,15.2-16.1c5.4,0,9.9,4,9.9,4l0-3.1h6.4
			v30.3h-6.4v-3.8C701.6,172.4,697.4,177.1,691.5,177.1L691.5,177.1"/>
		<path id="path32" class="st3" d="M754.1,171c5.2,0,9.5-4.5,9.5-10.1c0-5.6-4.2-10.1-9.5-10.1s-9.4,4.5-9.4,10.1
			C744.7,166.4,748.9,171,754.1,171z M752.8,177.1c-9.7,0-14.9-8.7-14.9-16c0-7.5,5.9-16.1,15.2-16.1c5.4,0,9.9,4,9.9,4l0-3.1h6.4
			v42.3H763v-15.8C763,172.4,758.8,177.1,752.8,177.1L752.8,177.1"/>
		<path id="path34" class="st3" d="M541.1,144.9c-6.6,0-12.7,4.1-12.7,4.1l2.8,4.3c0,0,5.8-2.7,9.9-2.7c2.7,0,7.2,0.9,7.3,3.6
			c0.1,2.8-7.6,3.7-7.6,3.7s-11.4,0.2-11.4,9.6c0,5.9,5.7,9.7,13,9.7c4.2,0,12.1-3.7,12.1-3.7l-3.2-5c0,0-6.1,2.4-9.3,2.5
			c-2.7,0.1-6-1.2-6-3.6c0-6.4,19,0.5,19-12.5C555,146.5,547.2,144.9,541.1,144.9L541.1,144.9"/>
		<path id="path36" class="st3" d="M565.5,185v-8.8h-5.7v-6.4h5.7v-15.2c0,0-0.5-10.3,10.6-10.3c3.1,0,9.1,2.3,9.1,2.3l-2.6,6.6
			c0,0-2.4-2-5.1-2c-5.1,0.1-5,3.4-5,3.4v15.2h10.6v6.4h-10.6v8.8H565.5"/>
		<path id="path38" class="st3" d="M603,170.8c0.2,0,0.5,0,0.8,0c7.8,0,7.7-7.4,7.7-7.4h-15.8C595.8,163.5,595.4,170.4,603,170.8z
			 M604,176.8c-10.4,0-15.6-8.6-15.6-16c0-7.7,4.7-16.3,16.2-16.3c4.9,0,11.8,4.3,11.8,4.3l-3,5.2c0,0-4.7-3.3-8.8-3.3
			c-8.3,0-8.8,8.1-8.8,8.1H618C618,158.7,619.6,176.8,604,176.8"/>
		<path id="path40" class="st3" d="M669.9,154l3-5.9c0,0-4.7-3.1-10-3.1c-10.9,0-17,8.2-17,16c0,12.2,9.7,15.8,16.2,15.8
			c5.9,0,11.1-3.4,11.1-3.4l-3.3-5.9c0,0-2,3.2-7.9,3.2c-5.9,0-9-5.1-9-9.9c0-5.4,3.6-10,9.1-10C666.3,150.8,669.9,154,669.9,154
			L669.9,154"/>
		<path id="path42" class="st3" d="M783,148c0.2,0,0.3,0,0.4-0.1c0.1-0.1,0.1-0.2,0.1-0.3c0-0.1,0-0.2-0.1-0.3
			c-0.1-0.1-0.2-0.1-0.4-0.1h-0.7v0.8H783z M783,148.5h-1.3v-2.8h0.6v1.1h0.3l0.9-1.1h0.7l-0.9,1.1c0.3,0,0.5,0.1,0.7,0.3
			c0.2,0.2,0.2,0.3,0.2,0.6c0,0.3-0.1,0.5-0.3,0.7C783.6,148.4,783.3,148.5,783,148.5z M782.8,144.7c-0.7,0-1.3,0.2-1.7,0.7
			c-0.4,0.4-0.7,1-0.7,1.7c0,0.7,0.2,1.2,0.7,1.7c0.4,0.4,1,0.7,1.7,0.7c0.7,0,1.2-0.2,1.7-0.7c0.4-0.4,0.7-1,0.7-1.7
			c0-0.7-0.2-1.2-0.7-1.7C784,144.9,783.5,144.7,782.8,144.7z M782.8,150.1c-0.9,0-1.6-0.3-2.2-0.9c-0.6-0.6-0.9-1.3-0.9-2.2
			c0-0.9,0.3-1.6,0.9-2.2c0.6-0.6,1.3-0.9,2.2-0.9c0.9,0,1.6,0.3,2.2,0.9c0.6,0.6,0.9,1.3,0.9,2.2c0,0.9-0.3,1.6-0.9,2.2
			C784.4,149.8,783.7,150.1,782.8,150.1"/>
	</g>
</g>
</svg>
