<?xml version="1.0" encoding="UTF-8" standalone="no"?>
<!-- Created with Inkscape (http://www.inkscape.org/) -->

<svg
   xmlns:dc="http://purl.org/dc/elements/1.1/"
   xmlns:cc="http://creativecommons.org/ns#"
   xmlns:rdf="http://www.w3.org/1999/02/22-rdf-syntax-ns#"
   xmlns:svg="http://www.w3.org/2000/svg"
   xmlns="http://www.w3.org/2000/svg"
   xmlns:sodipodi="http://sodipodi.sourceforge.net/DTD/sodipodi-0.dtd"
   xmlns:inkscape="http://www.inkscape.org/namespaces/inkscape"
   width="32"
   height="32"
   viewBox="0 0 32 32.000001"
   id="svg4513"
   version="1.1"
   inkscape:version="0.92.1 r"
   sodipodi:docname="location.svg">
  <defs
     id="defs4515" />
  <sodipodi:namedview
     id="base"
     pagecolor="#ffffff"
     bordercolor="#666666"
     borderopacity="1.0"
     inkscape:pageopacity="0.0"
     inkscape:pageshadow="2"
     inkscape:zoom="8"
     inkscape:cx="14.196774"
     inkscape:cy="22.924377"
     inkscape:document-units="px"
     inkscape:current-layer="layer1"
     showgrid="true"
     units="px"
     inkscape:window-width="1452"
     inkscape:window-height="924"
     inkscape:window-x="287"
     inkscape:window-y="179"
     inkscape:window-maximized="0"
     inkscape:snap-global="true"
     inkscape:snap-bbox="false"
     showguides="false">
    <inkscape:grid
       type="xygrid"
       id="grid5061" />
  </sodipodi:namedview>
  <metadata
     id="metadata4518">
    <rdf:RDF>
      <cc:Work
         rdf:about="">
        <dc:format>image/svg+xml</dc:format>
        <dc:type
           rdf:resource="http://purl.org/dc/dcmitype/StillImage" />
        <dc:title />
      </cc:Work>
    </rdf:RDF>
  </metadata>
  <g
     inkscape:label="Layer 1"
     inkscape:groupmode="layer"
     id="layer1"
     transform="translate(0,-1020.3622)">
    <path
       style="fill:#806600;fill-opacity:1;stroke:none;stroke-width:1.13043475"
       d="M 16 0 C 14.892 0 14 0.892 14 2 L 14 3.171875 A 13 13 0 0 0 3.1640625 14 L 2 14 C 0.892 14 0 14.892 0 16 C -5.9211895e-16 17.108 0.892 18 2 18 L 3.171875 18 A 13 13 0 0 0 14 28.835938 L 14 30 C 14 31.108 14.892 32 16 32 C 17.108 32 18 31.108 18 30 L 18 28.828125 A 13 13 0 0 0 28.835938 18 L 30 18 C 31.108 18 32 17.108 32 16 C 32 14.892 31.108 14 30 14 L 28.828125 14 A 13 13 0 0 0 18 3.1640625 L 18 2 C 18 0.892 17.108 0 16 0 z M 18 7.234375 A 9 9 0 0 1 24.763672 14 L 24 14 C 22.892 14 22 14.892 22 16 C 22 17.108 22.892 18 24 18 L 24.765625 18 A 9 9 0 0 1 18 24.763672 L 18 24 C 18 22.892 17.108 22 16 22 C 14.892 22 14 22.892 14 24 L 14 24.765625 A 9 9 0 0 1 7.2363281 18 L 8 18 C 9.108 18 10 17.108 10 16 C 10 14.892 9.108 14 8 14 L 7.234375 14 A 9 9 0 0 1 14 7.2363281 L 14 8 C 14 9.108 14.892 10 16 10 C 17.108 10 18 9.108 18 8 L 18 7.234375 z M 16 14 A 2 2 0 0 0 14 16 A 2 2 0 0 0 16 18 A 2 2 0 0 0 18 16 A 2 2 0 0 0 16 14 z "
       transform="translate(0,1020.3622)"
       id="path217" />
    <path
       style="fill:#fad851;fill-opacity:1;stroke:none;stroke-width:1"
       d="M 16 1 C 15.446 1 15 1.446 15 2 L 15 4.0507812 A 12 12 0 0 0 4.046875 15 L 2 15 C 1.446 15 1 15.446 1 16 C 1 16.554 1.446 17 2 17 L 4.0507812 17 A 12 12 0 0 0 15 27.953125 L 15 30 C 15 30.554 15.446 31 16 31 C 16.554 31 17 30.554 17 30 L 17 27.949219 A 12 12 0 0 0 27.953125 17 L 30 17 C 30.554 17 31 16.554 31 16 C 31 15.446 30.554 15 30 15 L 27.949219 15 A 12 12 0 0 0 17 4.046875 L 17 2 C 17 1.446 16.554 1 16 1 z M 17 6.0507812 A 10 10 0 0 1 25.939453 15 L 24 15 C 23.446 15 23 15.446 23 16 C 23 16.554 23.446 17 24 17 L 25.949219 17 A 10 10 0 0 1 17 25.939453 L 17 24 C 17 23.446 16.554 23 16 23 C 15.446 23 15 23.446 15 24 L 15 25.949219 A 10 10 0 0 1 6.0605469 17 L 8 17 C 8.554 17 9 16.554 9 16 C 9 15.446 8.554 15 8 15 L 6.0507812 15 A 10 10 0 0 1 15 6.0605469 L 15 8 C 15 8.554 15.446 9 16 9 C 16.554 9 17 8.554 17 8 L 17 6.0507812 z M 16 15 A 1 1 0 0 0 15 16 A 1 1 0 0 0 16 17 A 1 1 0 0 0 17 16 A 1 1 0 0 0 16 15 z "
       transform="translate(0,1020.3622)"
       id="path10-6" />
  </g>
</svg>
