<?xml version="1.0" encoding="UTF-8" standalone="no"?>
<!-- Created with Inkscape (http://www.inkscape.org/) -->

<svg
   xmlns:dc="http://purl.org/dc/elements/1.1/"
   xmlns:cc="http://creativecommons.org/ns#"
   xmlns:rdf="http://www.w3.org/1999/02/22-rdf-syntax-ns#"
   xmlns:svg="http://www.w3.org/2000/svg"
   xmlns="http://www.w3.org/2000/svg"
   xmlns:sodipodi="http://sodipodi.sourceforge.net/DTD/sodipodi-0.dtd"
   xmlns:inkscape="http://www.inkscape.org/namespaces/inkscape"
   width="32"
   height="32"
   viewBox="0 0 32 32.000001"
   id="svg4513"
   version="1.1"
   inkscape:version="0.91 r13725"
   sodipodi:docname="pin_alt.svg">
  <defs
     id="defs4515" />
  <sodipodi:namedview
     id="base"
     pagecolor="#ffffff"
     bordercolor="#666666"
     borderopacity="1.0"
     inkscape:pageopacity="0.0"
     inkscape:pageshadow="2"
     inkscape:zoom="11.313708"
     inkscape:cx="-4.8021969"
     inkscape:cy="3.4891718"
     inkscape:document-units="px"
     inkscape:current-layer="layer1"
     showgrid="true"
     units="px"
     inkscape:window-width="1452"
     inkscape:window-height="878"
     inkscape:window-x="281"
     inkscape:window-y="81"
     inkscape:window-maximized="0">
    <inkscape:grid
       type="xygrid"
       id="grid5061" />
  </sodipodi:namedview>
  <metadata
     id="metadata4518">
    <rdf:RDF>
      <cc:Work
         rdf:about="">
        <dc:format>image/svg+xml</dc:format>
        <dc:type
           rdf:resource="http://purl.org/dc/dcmitype/StillImage" />
        <dc:title />
      </cc:Work>
    </rdf:RDF>
  </metadata>
  <g
     inkscape:label="Layer 1"
     inkscape:groupmode="layer"
     id="layer1"
     transform="translate(0,-1020.3622)">
    <path
       style="opacity:1;fill:#c19ebc;fill-opacity:1;stroke:#5c3566;stroke-width:1.0399704;stroke-linecap:round;stroke-linejoin:miter;stroke-miterlimit:4;stroke-dasharray:none;stroke-opacity:1"
       d="m 4.6484375,0.5195312 c -2.2869143,0 -4.12890625,1.841992 -4.12890625,4.1289063 l 0,18.7031245 c 0,2.286915 1.84199195,4.128907 4.12890625,4.128907 l 7.3515625,0 4,4 4,-4 7.351562,0 c 2.286915,0 4.128907,-1.841992 4.128907,-4.128907 l 0,-18.7031245 c 0,-2.2869143 -1.841992,-4.1289063 -4.128907,-4.1289063 z"
       transform="translate(0,1020.3622)"
       id="rect5063"
       inkscape:connector-curvature="0"
       sodipodi:nodetypes="sssscccsssss" />
    <path
       sodipodi:type="inkscape:offset"
       inkscape:radius="0.45066029"
       inkscape:original="M 15.728516 1023.8848 L 3.84375 1042.2246 L 3.4648438 1040.9707 L 2.7597656 1041.6406 L 3.6816406 1044.3242 L 4.5351562 1044.3242 L 4.25 1043.4375 L 7.0917969 1039.1328 L 7.0917969 1044.3145 L 15.972656 1044.3145 L 15.972656 1026.1758 L 16.296875 1026.5508 L 16.892578 1031.1074 L 17.921875 1040.8047 L 19.873047 1044.3145 L 24.363281 1044.3145 L 24.363281 1039.1328 L 27.205078 1043.4375 L 26.919922 1044.3242 L 27.773438 1044.3242 L 28.693359 1041.6406 L 27.990234 1040.9707 L 27.611328 1042.2246 L 15.728516 1023.8848 z "
       style="fill:#ffffff;fill-opacity:1;fill-rule:nonzero;stroke:#5c3566;stroke-opacity:1"
       id="path5095"
       d="m 15.726562,1023.4336 a 0.45070535,0.45070535 0 0 0 -0.376953,0.207 l -11.3554684,17.5235 -0.097656,-0.3243 a 0.45070535,0.45070535 0 0 0 -0.7421875,-0.1953 l -0.7050781,0.67 a 0.45070535,0.45070535 0 0 0 -0.1152344,0.4726 l 0.921875,2.6836 a 0.45070535,0.45070535 0 0 0 0.4257812,0.3047 l 0.8535156,0 a 0.45070535,0.45070535 0 0 0 0.4296876,-0.5899 l -0.21875,-0.6796 1.8945312,-2.8711 0,3.6797 a 0.45070535,0.45070535 0 0 0 0.4511719,0.4511 l 8.8808591,0 a 0.45070535,0.45070535 0 0 0 0.451172,-0.4511 l 0,-13.3184 0.02148,0.1641 1.029297,9.6914 a 0.45070535,0.45070535 0 0 0 0.05273,0.1718 l 1.951172,3.5098 a 0.45070535,0.45070535 0 0 0 0.394531,0.2324 l 4.490234,0 a 0.45070535,0.45070535 0 0 0 0.451172,-0.4511 l 0,-3.6797 1.894531,2.8711 -0.21875,0.6796 a 0.45070535,0.45070535 0 0 0 0.429688,0.5899 l 0.853516,0 a 0.45070535,0.45070535 0 0 0 0.425781,-0.3047 l 0.919922,-2.6836 a 0.45070535,0.45070535 0 0 0 -0.115235,-0.4726 l -0.703125,-0.67 a 0.45070535,0.45070535 0 0 0 -0.742187,0.1953 l -0.09766,0.3243 -11.353516,-17.5235 a 0.45070535,0.45070535 0 0 0 -0.38086,-0.207 z" />
  </g>
</svg>
